<svg xmlns="http://www.w3.org/2000/svg" xmlns:xlink="http://www.w3.org/1999/xlink" viewBox="0 0 163 116"><path d="M 52.884 31.83 C 47.358 27.649 40.469 25.117 32.999 25.117 C 14.769 25.117 0 39.834 0 58 C 0 76.167 14.769 90.866 32.999 90.866 C 40.486 90.866 47.358 88.351 52.884 84.171 C 48.876 76.303 46.574 67.432 46.574 58 C 46.574 48.569 48.876 39.698 52.884 31.83 Z" fill="rgb(255,255,255)"></path><path d="M 104.778 0 C 82.08 0 62.485 12.949 52.884 31.829 C 60.814 37.828 65.981 47.294 65.981 58 C 65.981 68.706 60.831 78.172 52.884 84.171 C 62.485 103.034 82.097 116 104.778 116 C 136.925 116 163 90.033 163 58 C 163 25.967 136.925 0 104.778 0 Z" fill="rgb(255,255,255)"></path></svg>
